<svg width="199" height="30" viewBox="0 0 199 30" fill="none" xmlns="http://www.w3.org/2000/svg">
<path d="M21.6714 2.7638L0 7.45106L4.68726 29.1225L26.3587 24.4352L21.6714 2.7638Z" fill="#F69B32"/>
<path d="M22.3276 5.26266H4.86697L3.37793 25.8033H23.8166L22.3276 5.26266Z" fill="#3C4D61"/>
<path d="M8.37553 7.62881C8.37553 8.17955 7.92678 8.6283 7.37603 8.6283C6.82529 8.6283 6.37654 8.17955 6.37654 7.62881C6.37654 7.07807 6.82529 6.62931 7.37603 6.62931C7.92678 6.62931 8.37553 7.07807 8.37553 7.62881Z" fill="#232F3E"/>
<path d="M20.7979 7.62881C20.7979 8.17955 20.3492 8.6283 19.7984 8.6283C19.2477 8.6283 18.7989 8.17955 18.7989 7.62881C18.7989 7.07807 19.2477 6.62931 19.7984 6.62931C20.3492 6.62931 20.7979 7.07807 20.7979 7.62881Z" fill="#232F3E"/>
<path d="M19.8188 7.93477C19.5944 7.93477 19.3904 7.75119 19.3904 7.50642V6.62931C19.3904 3.42684 16.7795 0.836313 13.5974 0.836313C10.395 0.836313 7.80442 3.44724 7.80442 6.62931V7.50642C7.80442 7.73079 7.62084 7.93477 7.37607 7.93477C7.15169 7.93477 6.94771 7.75119 6.94771 7.50642V6.62931C6.96811 2.97809 9.9462 0 13.5974 0C17.2486 0 20.2267 2.97809 20.2267 6.62931V7.50642C20.2471 7.75119 20.0635 7.93477 19.8188 7.93477Z" fill="#F2F2F2"/>
<path d="M9.32297 8.18895L5.58295 20.4624L17.8564 24.2024L21.5964 11.929L9.32297 8.18895Z" fill="#F2F2F2"/>
<path opacity="0.3" d="M12.403 9.34667L5.23859 18.8893L14.7812 26.0537L21.9456 16.5111L12.403 9.34667Z" fill="#351945"/>
<path d="M11.6473 7.33207L4.72533 18.1352L15.5284 25.0571L22.4503 14.254L11.6473 7.33207Z" fill="#F69B32"/>
<g opacity="0.3">
<path d="M16.6977 15.2576L13.3932 18.5621C14.1072 18.97 14.8211 18.8884 15.3718 18.3173C15.7798 17.9093 16.0246 17.3382 16.0246 16.7058L17.5952 16.6854C17.636 17.6849 17.228 18.7048 16.3713 19.5615C14.8415 21.0914 12.9241 21.0914 11.4962 19.6635C10.048 18.2153 10.0684 16.2571 11.537 14.8088C13.1893 13.177 15.0863 13.4422 16.6977 15.2576ZM14.4539 15.8899C13.8828 15.3188 13.1485 15.2984 12.5977 15.8491C12.0674 16.3795 12.1082 17.1138 12.5773 17.7665L14.4539 15.8899Z" fill="#351945"/>
</g>
<path d="M16.1471 13.789C14.6988 12.3407 12.3326 12.3407 10.8844 13.789C9.43615 15.2372 9.43615 17.6034 10.8844 19.0516C12.3326 20.4999 14.6988 20.4999 16.1471 19.0516C16.9222 18.2765 17.2689 17.2566 17.2281 16.2571L15.4943 16.7263C15.4331 17.1342 15.2495 17.5218 14.9232 17.8278C14.2704 18.4805 13.2913 18.5825 12.5162 18.1541L16.4938 14.1969C16.3918 14.0541 16.2694 13.9114 16.1471 13.789ZM11.6187 17.0526C11.3739 16.3591 11.5371 15.5432 12.1083 14.9924C12.659 14.4417 13.4749 14.2785 14.1685 14.5029L11.6187 17.0526Z" fill="#F2F2F2"/>
<path d="M38.9176 20.1879C37.8255 19.6418 37.0064 18.8228 36.3694 17.8217C35.7323 16.8206 35.4593 15.6375 35.4593 14.3634C35.4593 13.0893 35.7323 11.9062 36.3694 10.9051C37.0064 9.90399 37.8255 9.08493 38.9176 8.53889C40.0097 7.99284 41.1928 7.62881 42.5579 7.62881C43.923 7.62881 45.1061 7.90183 46.1982 8.53889C47.2903 9.08493 48.1094 9.90399 48.7464 10.9051C49.3835 11.9062 49.6565 13.0893 49.6565 14.3634C49.6565 15.6375 49.3835 16.8206 48.7464 17.8217C48.1094 18.8228 47.2903 19.6418 46.1982 20.1879C45.1061 20.7339 43.923 21.0979 42.5579 21.0979C41.1928 21.0979 40.0097 20.8249 38.9176 20.1879ZM44.6511 18.0037C45.2881 17.6396 45.7432 17.1846 46.1072 16.5476C46.4712 15.9105 46.6533 15.1824 46.6533 14.3634C46.6533 13.5443 46.4712 12.8162 46.1072 12.1792C45.7432 11.5421 45.2881 11.0871 44.6511 10.7231C44.014 10.359 43.377 10.177 42.5579 10.177C41.7388 10.177 41.1018 10.359 40.4647 10.7231C39.8277 11.0871 39.3726 11.5421 39.0086 12.1792C38.6446 12.8162 38.4626 13.5443 38.4626 14.3634C38.4626 15.1824 38.6446 15.9105 39.0086 16.5476C39.3726 17.1846 39.8277 17.6396 40.4647 18.0037C41.1018 18.3677 41.7388 18.5497 42.5579 18.5497C43.377 18.5497 44.014 18.3677 44.6511 18.0037Z" fill="#F69B32"/>
<path d="M67.5851 7.90184V20.9159H65.1279L58.6663 12.9983V20.9159H55.6631V7.90184H58.1203L64.5818 15.8195V7.90184H67.5851Z" fill="#F69B32"/>
<path d="M74.4107 7.90184H77.4139V18.4587H83.9665V20.9159H74.4107V7.90184Z" fill="#F69B32"/>
<path d="M89.3358 7.90184H92.339V20.9159H89.3358V7.90184Z" fill="#F69B32"/>
<path d="M110.996 7.90184V20.9159H108.538L102.077 12.9983V20.9159H99.0736V7.90184H101.531L107.992 15.8195V7.90184H110.996Z" fill="#F69B32"/>
<path d="M127.832 18.4587V20.9159H117.821V7.90184H127.65V10.359H120.824V13.1803H126.831V15.5465H120.824V18.5497H127.832V18.4587Z" fill="#F69B32"/>
<path d="M135.295 20.6429C134.294 20.3699 133.566 20.0059 133.02 19.5508L134.021 17.2756C134.567 17.6397 135.204 18.0037 136.023 18.2767C136.751 18.5497 137.57 18.6407 138.298 18.6407C139.117 18.6407 139.754 18.5497 140.209 18.2767C140.573 18.0037 140.846 17.6397 140.846 17.2756C140.846 17.0026 140.755 16.7296 140.482 16.5476C140.209 16.3656 139.936 16.1835 139.572 16.0925C139.208 16.0015 138.662 15.8195 138.025 15.7285C137.024 15.4555 136.205 15.2735 135.568 15.0004C134.931 14.7274 134.385 14.3634 133.93 13.9083C133.475 13.3623 133.293 12.7252 133.293 11.8152C133.293 11.0871 133.475 10.3591 133.93 9.722C134.294 9.08495 134.931 8.6299 135.75 8.26587C136.569 7.90184 137.57 7.71982 138.753 7.71982C139.572 7.71982 140.391 7.81083 141.21 7.99284C142.029 8.17486 142.666 8.44789 143.303 8.81192L142.393 11.0871C141.21 10.4501 140.027 10.086 138.753 10.086C137.934 10.086 137.297 10.268 136.933 10.45C136.569 10.7231 136.296 11.0871 136.296 11.5422C136.296 11.9972 136.569 12.3612 137.024 12.5432C137.479 12.7252 138.207 12.9983 139.117 13.1803C140.118 13.4533 140.937 13.6353 141.574 13.9083C142.211 14.1814 142.757 14.5454 143.212 15.0004C143.667 15.5465 143.85 16.1835 143.85 17.0936C143.85 17.8217 143.667 18.5497 143.212 19.0958C142.757 19.7328 142.211 20.1879 141.392 20.5519C140.573 20.9159 139.572 21.098 138.389 21.098C137.206 21.098 136.205 20.9159 135.295 20.6429Z" fill="#F2F2F2"/>
<path d="M161.414 7.90184V20.9159H158.411V15.5465H152.495V20.9159H149.492V7.90184H152.495V12.9983H158.411V7.90184H161.414Z" fill="#F2F2F2"/>
<path d="M170.879 20.1879C169.787 19.6418 168.968 18.8228 168.33 17.8217C167.693 16.8206 167.42 15.6375 167.42 14.3634C167.42 13.0893 167.693 11.9062 168.33 10.9051C168.968 9.90399 169.787 9.08493 170.879 8.53889C171.971 7.99284 173.154 7.62881 174.519 7.62881C175.884 7.62881 177.067 7.90183 178.159 8.53889C179.251 9.08493 180.07 9.90399 180.708 10.9051C181.345 11.9062 181.618 13.0893 181.618 14.3634C181.618 15.6375 181.345 16.8206 180.708 17.8217C180.07 18.8228 179.251 19.6418 178.159 20.1879C177.067 20.7339 175.884 21.0979 174.519 21.0979C173.154 21.0979 171.971 20.8249 170.879 20.1879ZM176.612 18.0037C177.249 17.6396 177.704 17.1846 178.068 16.5476C178.432 15.9105 178.614 15.1824 178.614 14.3634C178.614 13.5443 178.432 12.8162 178.068 12.1792C177.704 11.5421 177.249 11.0871 176.612 10.7231C175.975 10.359 175.338 10.177 174.519 10.177C173.7 10.177 173.063 10.359 172.426 10.7231C171.789 11.0871 171.334 11.5421 170.97 12.1792C170.606 12.8162 170.424 13.5443 170.424 14.3634C170.424 15.1824 170.606 15.9105 170.97 16.5476C171.334 17.1846 171.789 17.6396 172.426 18.0037C173.063 18.3677 173.7 18.5497 174.519 18.5497C175.338 18.5497 175.975 18.3677 176.612 18.0037Z" fill="#F2F2F2"/>
<path d="M196.27 8.44788C197.089 8.81191 197.726 9.35796 198.272 10.086C198.727 10.8141 199 11.6332 199 12.6342C199 13.5443 198.727 14.4544 198.272 15.0914C197.817 15.8195 197.18 16.3656 196.27 16.7296C195.451 17.0936 194.45 17.2756 193.267 17.2756H190.627V20.8249H187.624V7.81083H193.267C194.359 7.90184 195.36 8.08385 196.27 8.44788ZM195.087 14.2724C195.542 13.9083 195.815 13.3623 195.815 12.6342C195.815 11.9062 195.542 11.3601 195.087 10.9961C194.632 10.6321 193.904 10.45 192.994 10.45H190.536V15.0004H192.994C193.995 14.8184 194.632 14.6364 195.087 14.2724Z" fill="#F2F2F2"/>
</svg>
