<svg width="378" height="56" viewBox="0 0 378 56" fill="none" xmlns="http://www.w3.org/2000/svg">
<path d="M41.1647 5.24983L0 14.1533L8.90343 55.318L50.0681 46.4145L41.1647 5.24983Z" fill="#F69B32"/>
<path d="M42.4112 9.99636H9.24493L6.4165 49.0132H45.2397L42.4112 9.99636Z" fill="#3C4D61"/>
<path d="M15.9092 14.4909C15.9092 15.537 15.0567 16.3894 14.0106 16.3894C12.9645 16.3894 12.1121 15.537 12.1121 14.4909C12.1121 13.4448 12.9645 12.5924 14.0106 12.5924C15.0567 12.5924 15.9092 13.4448 15.9092 14.4909Z" fill="#F2F2F2"/>
<path d="M39.5052 14.4909C39.5052 15.537 38.6528 16.3894 37.6067 16.3894C36.5606 16.3894 35.7082 15.537 35.7082 14.4909C35.7082 13.4448 36.5606 12.5924 37.6067 12.5924C38.6528 12.5924 39.5052 13.4448 39.5052 14.4909Z" fill="#F2F2F2"/>
<path d="M37.6455 15.0721C37.2193 15.0721 36.8318 14.7234 36.8318 14.2584V12.5923C36.8318 6.50927 31.8724 1.58857 25.828 1.58857C19.745 1.58857 14.8243 6.54802 14.8243 12.5923V14.2584C14.8243 14.6846 14.4756 15.0721 14.0106 15.0721C13.5844 15.0721 13.1969 14.7234 13.1969 14.2584V12.5923C13.2357 5.65687 18.8926 0 25.828 0C32.7635 0 38.4204 5.65687 38.4204 12.5923V14.2584C38.4591 14.7234 38.1104 15.0721 37.6455 15.0721Z" fill="#232F3E"/>
<path d="M17.709 15.5549L10.6049 38.8682L33.9182 45.9724L41.0223 22.659L17.709 15.5549Z" fill="#F2F2F2"/>
<path opacity="0.3" d="M23.5594 17.7539L9.95064 35.8801L28.0768 49.4889L41.6856 31.3627L23.5594 17.7539Z" fill="#351945"/>
<path d="M22.1238 13.9272L8.9756 34.4476L29.496 47.5958L42.6442 27.0754L22.1238 13.9272Z" fill="#F69B32"/>
<g opacity="0.3">
<path d="M31.7174 28.9817L25.4406 35.2585C26.7967 36.0334 28.1528 35.8785 29.1989 34.7936C29.9739 34.0187 30.4388 32.9338 30.4388 31.7327L33.4222 31.6939C33.4997 33.5925 32.7248 35.5297 31.0975 37.1571C28.1916 40.063 24.5495 40.063 21.8373 37.3508C19.0863 34.5998 19.1251 30.8803 21.9148 28.1293C25.0532 25.0297 28.6565 25.5334 31.7174 28.9817ZM27.4554 30.1828C26.3705 29.098 24.9757 29.0592 23.9295 30.1054C22.9221 31.1127 22.9996 32.5076 23.8908 33.7474L27.4554 30.1828Z" fill="#351945"/>
</g>
<path d="M30.6712 26.1921C27.9203 23.4411 23.4258 23.4411 20.6749 26.1921C17.9239 28.943 17.9239 33.4375 20.6749 36.1884C23.4258 38.9394 27.9203 38.9394 30.6712 36.1884C32.1436 34.7161 32.8023 32.7788 32.7248 30.8803L29.4314 31.7714C29.3151 32.5464 28.9664 33.2825 28.3465 33.8637C27.1066 35.1036 25.2468 35.2973 23.7745 34.4836L31.3299 26.967C31.1362 26.6958 30.9037 26.4245 30.6712 26.1921ZM22.0697 32.3914C21.6048 31.074 21.9147 29.5242 22.9996 28.4781C24.0457 27.4319 25.5956 27.122 26.9129 27.5482L22.0697 32.3914Z" fill="#F2F2F2"/>
<path d="M73.924 38.3468C71.8496 37.3095 70.2938 35.7537 69.0837 33.8522C67.8736 31.9506 67.355 29.7033 67.355 27.2832C67.355 24.863 67.8736 22.6157 69.0837 20.7141C70.2938 18.8126 71.8496 17.2568 73.924 16.2196C75.9984 15.1824 78.2457 14.4909 80.8388 14.4909C83.4318 14.4909 85.6791 15.0095 87.7535 16.2196C89.8279 17.2568 91.3837 18.8126 92.5938 20.7141C93.8039 22.6157 94.3225 24.863 94.3225 27.2832C94.3225 29.7033 93.8039 31.9506 92.5938 33.8522C91.3837 35.7537 89.8279 37.3095 87.7535 38.3468C85.6791 39.384 83.4318 40.0754 80.8388 40.0754C78.2457 40.0754 75.9984 39.5568 73.924 38.3468ZM84.8147 34.1979C86.0248 33.5064 86.8892 32.6421 87.5806 31.432C88.2721 30.2219 88.6178 28.839 88.6178 27.2832C88.6178 25.7273 88.2721 24.3444 87.5806 23.1343C86.8892 21.9242 86.0248 21.0599 84.8147 20.3684C83.6047 19.6769 82.3946 19.3312 80.8388 19.3312C79.2829 19.3312 78.0729 19.6769 76.8628 20.3684C75.6527 21.0599 74.7884 21.9242 74.0969 23.1343C73.4054 24.3444 73.0597 25.7273 73.0597 27.2832C73.0597 28.839 73.4054 30.2219 74.0969 31.432C74.7884 32.6421 75.6527 33.5064 76.8628 34.1979C78.0729 34.8894 79.2829 35.2351 80.8388 35.2351C82.3946 35.2351 83.6047 34.8894 84.8147 34.1979Z" fill="#F69B32"/>
<path d="M128.378 15.0095V39.7297H123.71L111.437 24.6901V39.7297H105.732V15.0095H110.399L122.673 30.0491V15.0095H128.378Z" fill="#F69B32"/>
<path d="M141.343 15.0095H147.047V35.0622H159.494V39.7297H141.343V15.0095Z" fill="#F69B32"/>
<path d="M169.693 15.0095H175.398V39.7297H169.693V15.0095Z" fill="#F69B32"/>
<path d="M210.836 15.0095V39.7297H206.168L193.895 24.6901V39.7297H188.19V15.0095H192.858L205.131 30.0491V15.0095H210.836Z" fill="#F69B32"/>
<path d="M242.817 35.0622V39.7297H223.801V15.0095H242.471V19.6769H229.506V25.0359H240.915V29.5304H229.506V35.2351H242.817V35.0622Z" fill="#F69B32"/>
<path d="M256.992 39.2111C255.09 38.6925 253.707 38.001 252.67 37.1366L254.572 32.8149C255.609 33.5064 256.819 34.1979 258.375 34.7165C259.758 35.2351 261.314 35.408 262.697 35.408C264.252 35.408 265.463 35.2351 266.327 34.7165C267.018 34.1979 267.537 33.5064 267.537 32.8149C267.537 32.2963 267.364 31.7777 266.845 31.432C266.327 31.0863 265.808 30.7405 265.117 30.5677C264.425 30.3948 263.388 30.049 262.178 29.8762C260.276 29.3576 258.721 29.0118 257.511 28.4932C256.3 27.9746 255.263 27.2831 254.399 26.4188C253.535 25.3816 253.189 24.1715 253.189 22.4428C253.189 21.0599 253.535 19.6769 254.399 18.4669C255.09 17.2568 256.3 16.3924 257.856 15.7009C259.412 15.0095 261.314 14.6637 263.561 14.6637C265.117 14.6637 266.673 14.8366 268.228 15.1823C269.784 15.5281 270.994 16.0467 272.204 16.7382L270.476 21.0599C268.228 19.8498 265.981 19.1583 263.561 19.1583C262.005 19.1583 260.795 19.504 260.104 19.8498C259.412 20.3684 258.893 21.0599 258.893 21.9242C258.893 22.7886 259.412 23.48 260.276 23.8258C261.141 24.1715 262.524 24.6901 264.252 25.0358C266.154 25.5544 267.71 25.9002 268.92 26.4188C270.13 26.9374 271.167 27.6289 272.032 28.4932C272.896 29.5304 273.242 30.7405 273.242 32.4692C273.242 33.8521 272.896 35.2351 272.032 36.2723C271.167 37.4824 270.13 38.3467 268.574 39.0382C267.018 39.7297 265.117 40.0754 262.869 40.0754C260.622 40.0754 258.721 39.7297 256.992 39.2111Z" fill="#3C4D61"/>
<path d="M306.605 15.0095V39.7297H300.901V29.5304H289.664V39.7297H283.959V15.0095H289.664V24.6901H300.901V15.0095H306.605Z" fill="#3C4D61"/>
<path d="M324.584 38.3468C322.509 37.3095 320.953 35.7537 319.743 33.8522C318.533 31.9506 318.015 29.7033 318.015 27.2832C318.015 24.863 318.533 22.6157 319.743 20.7141C320.953 18.8126 322.509 17.2568 324.584 16.2196C326.658 15.1824 328.905 14.4909 331.498 14.4909C334.091 14.4909 336.339 15.0095 338.413 16.2196C340.487 17.2568 342.043 18.8126 343.253 20.7141C344.463 22.6157 344.982 24.863 344.982 27.2832C344.982 29.7033 344.463 31.9506 343.253 33.8522C342.043 35.7537 340.487 37.3095 338.413 38.3468C336.339 39.384 334.091 40.0754 331.498 40.0754C328.905 40.0754 326.658 39.5568 324.584 38.3468ZM335.474 34.1979C336.684 33.5064 337.549 32.6421 338.24 31.432C338.932 30.2219 339.277 28.839 339.277 27.2832C339.277 25.7273 338.932 24.3444 338.24 23.1343C337.549 21.9242 336.684 21.0599 335.474 20.3684C334.264 19.6769 333.054 19.3312 331.498 19.3312C329.942 19.3312 328.732 19.6769 327.522 20.3684C326.312 21.0599 325.448 21.9242 324.756 23.1343C324.065 24.3444 323.719 25.7273 323.719 27.2832C323.719 28.839 324.065 30.2219 324.756 31.432C325.448 32.6421 326.312 33.5064 327.522 34.1979C328.732 34.8894 329.942 35.2351 331.498 35.2351C333.054 35.2351 334.264 34.8894 335.474 34.1979Z" fill="#3C4D61"/>
<path d="M372.814 16.0467C374.37 16.7382 375.58 17.7754 376.617 19.1583C377.481 20.5413 378 22.0971 378 23.9987C378 25.7274 377.481 27.456 376.617 28.6661C375.753 30.0491 374.543 31.0863 372.814 31.7778C371.258 32.4692 369.357 32.815 367.109 32.815H362.096V39.5568H356.391V14.8366H367.109C369.184 15.0095 371.085 15.3552 372.814 16.0467ZM370.567 27.1103C371.431 26.4188 371.95 25.3816 371.95 23.9987C371.95 22.6157 371.431 21.5785 370.567 20.887C369.702 20.1956 368.319 19.8498 366.591 19.8498H361.923V28.4932H366.591C368.492 28.1475 369.702 27.8018 370.567 27.1103Z" fill="#3C4D61"/>
</svg>
