<svg width="24" height="24" viewBox="0 0 24 24" fill="none" xmlns="http://www.w3.org/2000/svg">
<g clip-path="url(#clip0_0_129)">
<path d="M11.6822 7.51084L4.00014 13.8379V20.6667C4.00014 20.8435 4.07037 21.0131 4.1954 21.1381C4.32042 21.2631 4.48999 21.3333 4.6668 21.3333L9.33597 21.3213C9.5122 21.3204 9.68091 21.2498 9.80522 21.1248C9.92952 20.9999 9.9993 20.8308 9.9993 20.6546V16.6667C9.9993 16.4899 10.0695 16.3203 10.1946 16.1953C10.3196 16.0702 10.4892 16 10.666 16H13.3326C13.5094 16 13.679 16.0702 13.804 16.1953C13.9291 16.3203 13.9993 16.4899 13.9993 16.6667V20.6517C13.999 20.7394 14.0161 20.8263 14.0494 20.9074C14.0828 20.9886 14.1319 21.0623 14.1938 21.1244C14.2558 21.1866 14.3293 21.2358 14.4104 21.2695C14.4914 21.3031 14.5782 21.3204 14.666 21.3204L19.3335 21.3333C19.5103 21.3333 19.6798 21.2631 19.8049 21.1381C19.9299 21.0131 20.0001 20.8435 20.0001 20.6667V13.8333L12.3197 7.51084C12.2294 7.43806 12.1169 7.39838 12.001 7.39838C11.885 7.39838 11.7725 7.43806 11.6822 7.51084ZM23.8168 11.8113L20.3335 8.94001V3.16876C20.3335 3.03615 20.2808 2.90898 20.187 2.81521C20.0933 2.72144 19.9661 2.66876 19.8335 2.66876H17.5001C17.3675 2.66876 17.2403 2.72144 17.1466 2.81521C17.0528 2.90898 17.0001 3.03615 17.0001 3.16876V6.19418L13.2697 3.12501C12.9117 2.83042 12.4625 2.66935 11.9989 2.66935C11.5353 2.66935 11.086 2.83042 10.7281 3.12501L0.180969 11.8113C0.130339 11.8531 0.0884508 11.9045 0.0576975 11.9626C0.0269442 12.0206 0.0079287 12.0841 0.00173762 12.1495C-0.00445347 12.2149 0.00230116 12.2809 0.0216156 12.3437C0.04093 12.4065 0.0724256 12.4648 0.114303 12.5154L1.1768 13.8071C1.21857 13.8579 1.26993 13.8999 1.32797 13.9308C1.386 13.9617 1.44956 13.9809 1.51501 13.9872C1.58045 13.9935 1.6465 13.9868 1.70937 13.9676C1.77224 13.9483 1.83069 13.9169 1.88139 13.875L11.6822 5.80251C11.7725 5.72973 11.885 5.69004 12.001 5.69004C12.1169 5.69004 12.2294 5.72973 12.3197 5.80251L22.121 13.875C22.1716 13.9169 22.2299 13.9484 22.2927 13.9677C22.3555 13.987 22.4215 13.9938 22.4869 13.9876C22.5523 13.9814 22.6158 13.9624 22.6738 13.9316C22.7319 13.9009 22.7833 13.859 22.8251 13.8083L23.8876 12.5167C23.9295 12.4658 23.9608 12.4071 23.9799 12.3441C23.999 12.281 24.0054 12.2148 23.9989 12.1492C23.9923 12.0837 23.9728 12.0201 23.9416 11.9621C23.9103 11.9041 23.8679 11.8528 23.8168 11.8113Z" fill="#9DA7BB"/>
</g>
<defs>
<clipPath id="clip0_0_129">
<rect width="24" height="24" fill="white"/>
</clipPath>
</defs>
</svg>
