<svg width="24" height="24" viewBox="0 0 24 24" fill="none" xmlns="http://www.w3.org/2000/svg">
<g clip-path="url(#clip0_0_116)">
<path d="M11.682 7.51084L3.99989 13.8379V20.6667C3.99989 20.8435 4.07013 21.0131 4.19515 21.1381C4.32018 21.2631 4.48975 21.3333 4.66656 21.3333L9.33572 21.3213C9.51196 21.3204 9.68067 21.2498 9.80497 21.1248C9.92928 20.9999 9.99906 20.8308 9.99906 20.6546V16.6667C9.99906 16.4899 10.0693 16.3203 10.1943 16.1953C10.3193 16.0702 10.4889 16 10.6657 16H13.3324C13.5092 16 13.6788 16.0702 13.8038 16.1953C13.9288 16.3203 13.9991 16.4899 13.9991 16.6667V20.6517C13.9988 20.7394 14.0158 20.8263 14.0492 20.9074C14.0826 20.9886 14.1316 21.0623 14.1936 21.1244C14.2555 21.1866 14.3291 21.2358 14.4101 21.2695C14.4911 21.3031 14.578 21.3204 14.6657 21.3204L19.3332 21.3333C19.51 21.3333 19.6796 21.2631 19.8046 21.1381C19.9297 21.0131 19.9999 20.8435 19.9999 20.6667V13.8333L12.3195 7.51084C12.2292 7.43806 12.1167 7.39838 12.0007 7.39838C11.8847 7.39838 11.7723 7.43806 11.682 7.51084ZM23.8166 11.8113L20.3332 8.94001V3.16876C20.3332 3.03615 20.2805 2.90898 20.1868 2.81521C20.093 2.72144 19.9658 2.66876 19.8332 2.66876H17.4999C17.3673 2.66876 17.2401 2.72144 17.1463 2.81521C17.0526 2.90898 16.9999 3.03615 16.9999 3.16876V6.19418L13.2695 3.12501C12.9115 2.83042 12.4623 2.66935 11.9986 2.66935C11.535 2.66935 11.0858 2.83042 10.7278 3.12501L0.180725 11.8113C0.130095 11.8531 0.0882067 11.9045 0.0574534 11.9626C0.0267 12.0206 0.00768456 12.0841 0.00149348 12.1495C-0.00469761 12.2149 0.00205702 12.2809 0.0213714 12.3437C0.0406858 12.4065 0.0721814 12.4648 0.114059 12.5154L1.17656 13.8071C1.21832 13.8579 1.26969 13.8999 1.32772 13.9308C1.38576 13.9617 1.44932 13.9809 1.51476 13.9872C1.58021 13.9935 1.64626 13.9868 1.70913 13.9676C1.77199 13.9483 1.83045 13.9169 1.88114 13.875L11.682 5.80251C11.7723 5.72973 11.8847 5.69004 12.0007 5.69004C12.1167 5.69004 12.2292 5.72973 12.3195 5.80251L22.1207 13.875C22.1713 13.9169 22.2297 13.9484 22.2925 13.9677C22.3553 13.987 22.4212 13.9938 22.4866 13.9876C22.552 13.9814 22.6155 13.9624 22.6736 13.9316C22.7316 13.9009 22.783 13.859 22.8249 13.8083L23.8874 12.5167C23.9292 12.4658 23.9606 12.4071 23.9797 12.3441C23.9988 12.281 24.0052 12.2148 23.9986 12.1492C23.992 12.0837 23.9726 12.0201 23.9413 11.9621C23.9101 11.9041 23.8677 11.8528 23.8166 11.8113Z" fill="#F69B32"/>
</g>
<defs>
<clipPath id="clip0_0_116">
<rect width="24" height="24" fill="white"/>
</clipPath>
</defs>
</svg>
