<svg width="20" height="20" viewBox="0 0 20 20" fill="none" xmlns="http://www.w3.org/2000/svg">
<path d="M10 13.75C12.0711 13.75 13.75 12.0711 13.75 10V3.75C13.75 1.67891 12.0711 0 10 0C7.92891 0 6.25 1.67891 6.25 3.75V10C6.25 12.0711 7.92891 13.75 10 13.75ZM16.25 7.5H15.625C15.2797 7.5 15 7.77969 15 8.125V10C15 12.9219 12.4809 15.2664 9.50039 14.9758C6.90273 14.7223 5 12.3871 5 9.77734V8.125C5 7.77969 4.72031 7.5 4.375 7.5H3.75C3.40469 7.5 3.125 7.77969 3.125 8.125V9.69375C3.125 13.1953 5.62383 16.3168 9.0625 16.791V18.125H6.875C6.52969 18.125 6.25 18.4047 6.25 18.75V19.375C6.25 19.7203 6.52969 20 6.875 20H13.125C13.4703 20 13.75 19.7203 13.75 19.375V18.75C13.75 18.4047 13.4703 18.125 13.125 18.125H10.9375V16.8059C14.2855 16.3465 16.875 13.4727 16.875 10V8.125C16.875 7.77969 16.5953 7.5 16.25 7.5Z" fill="#C5C5C5"/>
</svg>
