<svg width="20" height="20" viewBox="0 0 20 20" fill="none" xmlns="http://www.w3.org/2000/svg">
<g clip-path="url(#clip0_20_580)">
<path d="M9.99993 14.5C7.62962 14.5 5.71087 12.6653 5.53431 10.3403L2.25618 7.80688C1.82524 8.34751 1.42868 8.91907 1.10868 9.54407C1.0372 9.68548 0.999949 9.84171 0.999949 10.0002C0.999949 10.1586 1.0372 10.3148 1.10868 10.4563C2.80337 13.7628 6.15837 16 9.99993 16C10.8409 16 11.6521 15.875 12.434 15.6731L10.8124 14.4184C10.5446 14.4702 10.2727 14.4975 9.99993 14.5ZM19.8068 16.3156L16.3521 13.6456C17.4016 12.7612 18.2646 11.677 18.8912 10.4559C18.9627 10.3145 18.9999 10.1583 18.9999 9.99985C18.9999 9.8414 18.9627 9.68516 18.8912 9.54376C17.1965 6.23719 13.8415 4.00001 9.99993 4.00001C8.39103 4.00196 6.80825 4.407 5.39618 5.17813L1.42056 2.10532C1.36871 2.06498 1.30943 2.03525 1.24609 2.01783C1.18276 2.00041 1.11661 1.99564 1.05142 2.00379C0.986243 2.01195 0.923308 2.03287 0.866214 2.06535C0.809121 2.09784 0.758989 2.14126 0.718682 2.19313L0.105245 2.98282C0.0238694 3.0875 -0.0125944 3.22022 0.00387316 3.35178C0.0203407 3.48335 0.088391 3.60298 0.193057 3.68438L18.5793 17.8947C18.6312 17.935 18.6904 17.9648 18.7538 17.9822C18.8171 17.9996 18.8833 18.0044 18.9484 17.9962C19.0136 17.9881 19.0766 17.9671 19.1337 17.9347C19.1907 17.9022 19.2409 17.8588 19.2812 17.8069L19.8949 17.0172C19.9763 16.9125 20.0127 16.7797 19.9962 16.6482C19.9796 16.5166 19.9115 16.397 19.8068 16.3156ZM14.0656 11.8781L12.8374 10.9288C12.9409 10.6298 12.9957 10.3163 12.9999 10C13.006 9.53696 12.9034 9.07894 12.7004 8.66274C12.4974 8.24653 12.1996 7.88374 11.8309 7.60351C11.4623 7.32328 11.033 7.13342 10.5776 7.04917C10.1223 6.96493 9.65352 6.98866 9.20899 7.11844C9.39744 7.37379 9.49937 7.68266 9.49993 8.00001C9.49527 8.10561 9.47913 8.21039 9.45181 8.31251L7.15149 6.53469C7.95055 5.86695 8.9586 5.50078 9.99993 5.50001C10.591 5.49968 11.1763 5.61585 11.7224 5.84188C12.2685 6.06791 12.7647 6.39936 13.1826 6.81729C13.6006 7.23522 13.932 7.73143 14.1581 8.27754C14.3841 8.82366 14.5003 9.40897 14.4999 10C14.4999 10.6759 14.3346 11.3059 14.0656 11.8784V11.8781Z" fill="#C5C5C5"/>
</g>
<defs>
<clipPath id="clip0_20_580">
<rect width="20" height="20" fill="white"/>
</clipPath>
</defs>
</svg>
