<svg width="14" height="14" viewBox="0 0 14 14" fill="none" xmlns="http://www.w3.org/2000/svg">
<g clip-path="url(#clip0_0_31)">
<path d="M4.7872 4.92324L5.04725 4.88532L5.1635 4.64963L6.75056 1.43177C6.75059 1.4317 6.75062 1.43164 6.75065 1.43158C6.8515 1.22768 7.14589 1.22431 7.24924 1.43219C7.24929 1.4323 7.24934 1.4324 7.24939 1.4325L8.83609 4.64963L8.95233 4.88532L9.21238 4.92324L12.7634 5.44095L12.7638 5.441C12.9899 5.4738 13.082 5.75437 12.917 5.91502L12.9168 5.91516L10.3477 8.41863L10.1594 8.60219L10.2039 8.8614L10.8115 12.3975C10.8115 12.3975 10.8115 12.3975 10.8115 12.3975C10.8498 12.6217 10.6124 12.7966 10.4092 12.6897L10.4092 12.6897L7.23243 11.0199L6.99979 10.8976L6.76716 11.0199L3.59042 12.6897L3.58885 12.6905C3.38915 12.7964 3.14925 12.6247 3.18812 12.3975L3.7957 8.8614L3.84024 8.60219L3.65187 8.41863L1.08277 5.91516L1.08263 5.91502C0.917633 5.75437 1.00964 5.4738 1.2358 5.441L1.23616 5.44095L4.7872 4.92324Z" stroke="#F69B32"/>
</g>
<defs>
<clipPath id="clip0_0_31">
<rect width="14" height="14" fill="white"/>
</clipPath>
</defs>
</svg>
