<svg width="24" height="24" viewBox="0 0 24 24" fill="none" xmlns="http://www.w3.org/2000/svg">
<path d="M12.0001 12C14.6513 12 16.8001 9.85124 16.8001 7.19999C16.8001 4.54874 14.6513 2.39999 12.0001 2.39999C9.34885 2.39999 7.2001 4.54874 7.2001 7.19999C7.2001 9.85124 9.34885 12 12.0001 12ZM15.3601 13.2H14.7338C13.9013 13.5825 12.9751 13.8 12.0001 13.8C11.0251 13.8 10.1026 13.5825 9.26635 13.2H8.6401C5.8576 13.2 3.6001 15.4575 3.6001 18.24V19.8C3.6001 20.7937 4.40635 21.6 5.4001 21.6H18.6001C19.5938 21.6 20.4001 20.7937 20.4001 19.8V18.24C20.4001 15.4575 18.1426 13.2 15.3601 13.2Z" fill="#9DA7BB"/>
</svg>
