<svg width="24" height="24" viewBox="0 0 24 24" fill="none" xmlns="http://www.w3.org/2000/svg">
<path d="M22.005 13.8883L23.9747 5.22163C24.1169 4.59589 23.6413 4.00001 22.9996 4.00001H6.63367L6.25175 2.13293C6.15658 1.66755 5.74708 1.33334 5.27204 1.33334H1C0.447708 1.33334 0 1.78105 0 2.33334V3.00001C0 3.5523 0.447708 4.00001 1 4.00001H3.91179L6.83879 18.3098C6.13854 18.7125 5.66667 19.4676 5.66667 20.3333C5.66667 21.622 6.71133 22.6667 8 22.6667C9.28867 22.6667 10.3333 21.622 10.3333 20.3333C10.3333 19.6803 10.0647 19.0902 9.63233 18.6667H18.3676C17.9353 19.0902 17.6667 19.6803 17.6667 20.3333C17.6667 21.622 18.7113 22.6667 20 22.6667C21.2887 22.6667 22.3333 21.622 22.3333 20.3333C22.3333 19.4095 21.7963 18.6112 21.0175 18.2331L21.2474 17.2216C21.3896 16.5959 20.914 16 20.2723 16H9.08821L8.8155 14.6667H21.0299C21.4968 14.6667 21.9015 14.3436 22.005 13.8883Z" fill="#9DA7BB"/>
</svg>
